<svg width="16" height="16" viewBox="0 0 16 16" fill="none" xmlns="http://www.w3.org/2000/svg">
<path d="M5.99984 3.3335C6.70708 3.3335 7.38536 3.61445 7.88546 4.11454C8.38555 4.61464 8.6665 5.29292 8.6665 6.00016C8.6665 6.70741 8.38555 7.38568 7.88546 7.88578C7.38536 8.38588 6.70708 8.66683 5.99984 8.66683C5.29259 8.66683 4.61432 8.38588 4.11422 7.88578C3.61412 7.38568 3.33317 6.70741 3.33317 6.00016C3.33317 5.29292 3.61412 4.61464 4.11422 4.11454C4.61432 3.61445 5.29259 3.3335 5.99984 3.3335ZM5.99984 10.0002C7.77984 10.0002 11.3332 10.8935 11.3332 12.6668V14.0002H0.666504V12.6668C0.666504 10.8935 4.21984 10.0002 5.99984 10.0002ZM11.1732 3.5735C12.5198 5.04016 12.5198 7.0735 11.1732 8.42016L10.0532 7.2935C10.6132 6.50683 10.6132 5.48683 10.0532 4.70016L11.1732 3.5735ZM13.3798 1.3335C15.9998 4.0335 15.9798 8.0735 13.3798 10.6668L12.2932 9.58016C14.1398 7.46016 14.1398 4.4335 12.2932 2.42016L13.3798 1.3335Z" fill="black"/>
</svg>
