<svg width="16" height="16" viewBox="0 0 16 16" fill="none" xmlns="http://www.w3.org/2000/svg">
<path d="M4.70203 2.3332C3.7887 3.2532 3.7887 4.7332 4.70203 5.64654L10.362 11.2999C10.7487 11.6932 10.7487 12.3332 10.362 12.7132C9.9687 13.1065 9.33536 13.1065 8.94203 12.7132L6.11537 9.88654L6.82203 9.17987L4.4687 6.81987L4.2287 7.05987L3.2887 6.1132C3.0287 5.8532 2.6087 5.8532 2.33536 6.1132L1.40203 7.05987C1.14203 7.3332 1.14203 7.73987 1.40203 7.99987L2.33536 8.93987L2.1087 9.17987L4.4687 11.5332L5.17536 10.8265L8.00203 13.6665C8.91536 14.5665 10.3887 14.5665 11.302 13.6665C12.2154 12.7465 12.2154 11.2665 11.302 10.3599L5.64203 4.69987C5.25536 4.30654 5.25536 3.66654 5.64203 3.28654C6.03536 2.8932 6.6687 2.8932 7.06203 3.28654L9.8887 6.1132L9.18203 6.81987L11.5354 9.17987L11.7754 8.93987L12.7154 9.88654C12.9754 10.1465 13.402 10.1465 13.6687 9.88654L14.602 8.93987C14.862 8.66654 14.862 8.25987 14.602 7.99987L13.6687 7.05987L13.8954 6.81987L11.5354 4.46654L10.8287 5.1732L8.00203 2.3332C7.0887 1.4332 5.61537 1.4332 4.70203 2.3332ZM1.87536 7.52654L2.81536 6.58654L3.76203 7.52654L2.81536 8.4732M12.242 8.4732L13.1887 7.52654L14.1287 8.4732L13.1887 9.4132L12.242 8.4732Z" fill="black"/>
</svg>
