<svg width="16" height="16" viewBox="0 0 16 16" fill="none" xmlns="http://www.w3.org/2000/svg">
<path d="M1.99984 9.33333L2.33317 9.38L5.37984 6.33333C5.25984 5.9 5.37317 5.40667 5.7265 5.06C6.2465 4.53333 7.0865 4.53333 7.6065 5.06C7.95984 5.40667 8.07317 5.9 7.95317 6.33333L9.6665 8.04667L9.99984 8C10.1198 8 10.2332 8 10.3332 8.04667L12.7132 5.66667C12.6665 5.56667 12.6665 5.45333 12.6665 5.33333C12.6665 4.97971 12.807 4.64057 13.057 4.39052C13.3071 4.14048 13.6462 4 13.9998 4C14.3535 4 14.6926 4.14048 14.9426 4.39052C15.1927 4.64057 15.3332 4.97971 15.3332 5.33333C15.3332 5.68696 15.1927 6.02609 14.9426 6.27614C14.6926 6.52619 14.3535 6.66667 13.9998 6.66667C13.8798 6.66667 13.7665 6.66667 13.6665 6.62L11.2865 9C11.3332 9.1 11.3332 9.21333 11.3332 9.33333C11.3332 9.68696 11.1927 10.0261 10.9426 10.2761C10.6926 10.5262 10.3535 10.6667 9.99984 10.6667C9.64622 10.6667 9.30708 10.5262 9.05703 10.2761C8.80698 10.0261 8.6665 9.68696 8.6665 9.33333L8.71317 9L6.99984 7.28667C6.7865 7.33333 6.5465 7.33333 6.33317 7.28667L3.2865 10.3333L3.33317 10.6667C3.33317 11.0203 3.19269 11.3594 2.94265 11.6095C2.6926 11.8595 2.35346 12 1.99984 12C1.64622 12 1.30708 11.8595 1.05703 11.6095C0.80698 11.3594 0.666504 11.0203 0.666504 10.6667C0.666504 10.313 0.80698 9.97391 1.05703 9.72386C1.30708 9.47381 1.64622 9.33333 1.99984 9.33333Z" fill="black"/>
</svg>
