<svg width="16" height="16" viewBox="0 0 16 16" fill="none" xmlns="http://www.w3.org/2000/svg">
<path d="M11.9335 11.5933C11.7602 11.0599 11.2602 10.6666 10.6668 10.6666H10.0002V8.66658C10.0002 8.48977 9.92992 8.3202 9.8049 8.19518C9.67988 8.07016 9.51031 7.99992 9.3335 7.99992H5.3335V6.66658H6.66683C6.84364 6.66658 7.01321 6.59635 7.13823 6.47132C7.26326 6.3463 7.3335 6.17673 7.3335 5.99992V4.66658H8.66683C9.02045 4.66658 9.35959 4.52611 9.60964 4.27606C9.85969 4.02601 10.0002 3.68687 10.0002 3.33325V3.05992C11.9535 3.84659 13.3335 5.75992 13.3335 7.99992C13.3335 9.38658 12.8002 10.6466 11.9335 11.5933ZM7.3335 13.2866C4.70016 12.9599 2.66683 10.7199 2.66683 7.99992C2.66683 7.58659 2.72016 7.18658 2.80683 6.80658L6.00016 9.99992V10.6666C6.00016 11.0202 6.14064 11.3593 6.39069 11.6094C6.64074 11.8594 6.97987 11.9999 7.3335 11.9999M8.00016 1.33325C7.12468 1.33325 6.25778 1.50569 5.44894 1.84072C4.6401 2.17575 3.90517 2.66682 3.28612 3.28587C2.03587 4.53612 1.3335 6.23181 1.3335 7.99992C1.3335 9.76803 2.03587 11.4637 3.28612 12.714C3.90517 13.333 4.6401 13.8241 5.44894 14.1591C6.25778 14.4941 7.12468 14.6666 8.00016 14.6666C9.76827 14.6666 11.464 13.9642 12.7142 12.714C13.9644 11.4637 14.6668 9.76803 14.6668 7.99992C14.6668 7.12444 14.4944 6.25753 14.1594 5.4487C13.8243 4.63986 13.3333 3.90493 12.7142 3.28587C12.0951 2.66682 11.3602 2.17575 10.5514 1.84072C9.74255 1.50569 8.87564 1.33325 8.00016 1.33325Z" fill="black"/>
</svg>
